<?xml version="1.0" encoding="UTF-8"?>
<svg width="18px" height="18px" viewBox="0 0 18 18" version="1.1" xmlns="http://www.w3.org/2000/svg" xmlns:xlink="http://www.w3.org/1999/xlink">
    <!-- Generator: Sketch 52.6 (67491) - http://www.bohemiancoding.com/sketch -->
    <title>Combined Shape Copy</title>
    <desc>Created with Sketch.</desc>
    <g id="钱包页面" stroke="none" stroke-width="1" fill="none" fill-rule="evenodd">
        <g id="全民公投" transform="translate(-906.000000, -654.000000)" fill="#34C69A">
            <g id="分组-4" transform="translate(906.000000, 653.000000)">
                <path d="M12.9423882,6.37132034 L12.8890873,6.31801948 L7.48223305,11.7248737 L5.41421356,9.65685425 L5.16421356,9.90685425 L5.1109127,9.85355339 L3.69669914,11.267767 L7.23223305,14.8033009 L7.48223305,14.5533009 L7.53553391,14.6066017 L8.94974747,13.1923882 L14.6066017,7.53553391 L13.1923882,6.12132034 L12.9423882,6.37132034 Z M9,19 C4.02943725,19 0,14.9705627 0,10 C0,5.02943725 4.02943725,1 9,1 C13.9705627,1 18,5.02943725 18,10 C18,14.9705627 13.9705627,19 9,19 Z" id="Combined-Shape-Copy"></path>
            </g>
        </g>
    </g>
</svg>